<?xml version="1.0" encoding="UTF-8" standalone="no"?>
<!-- Created with Inkscape (http://www.inkscape.org/) -->

<svg
   width="168.53073mm"
   height="178.57452mm"
   viewBox="0 0 168.53073 178.57452"
   version="1.1"
   id="svg5"
   xml:space="preserve"
   sodipodi:docname="es-coco-logo.svg"
   inkscape:version="1.2.1 (9c6d41e, 2022-07-14)"
   inkscape:export-filename="es-coco-logo.png"
   inkscape:export-xdpi="301.42871"
   inkscape:export-ydpi="301.42871"
   xmlns:inkscape="http://www.inkscape.org/namespaces/inkscape"
   xmlns:sodipodi="http://sodipodi.sourceforge.net/DTD/sodipodi-0.dtd"
   xmlns="http://www.w3.org/2000/svg"
   xmlns:svg="http://www.w3.org/2000/svg"><sodipodi:namedview
     id="namedview7"
     pagecolor="#ffffff"
     bordercolor="#666666"
     borderopacity="1.0"
     inkscape:showpageshadow="2"
     inkscape:pageopacity="0.0"
     inkscape:pagecheckerboard="0"
     inkscape:deskcolor="#d1d1d1"
     inkscape:document-units="mm"
     showgrid="false"
     inkscape:zoom="0.63077317"
     inkscape:cx="192.62075"
     inkscape:cy="272.68122"
     inkscape:window-width="1390"
     inkscape:window-height="1052"
     inkscape:window-x="113"
     inkscape:window-y="49"
     inkscape:window-maximized="0"
     inkscape:current-layer="layer1" /><defs
     id="defs2" /><g
     inkscape:label="Layer 1"
     inkscape:groupmode="layer"
     id="layer1"
     transform="translate(-20.734637,-59.212739)"><g
       id="g940"
       transform="translate(164.72171,24.948687)"><ellipse
         style="display:inline;fill:#ffffff;fill-rule:evenodd;stroke-width:0.264583"
         id="path583"
         cx="-59.662563"
         cy="64.650429"
         rx="53.139969"
         ry="25.89854" /><path
         style="display:inline;fill:#fc6877;stroke-width:0.264583"
         d="m -57.876054,139.92324 c -3.866096,-0.0568 -7.675253,0.14701 -10.941968,0.6811 -5.301214,0.86672 -12.302273,2.83486 -13.209013,3.71347 -2.155657,2.08878 4.727469,10.26605 10.827763,12.86381 2.898817,1.23444 3.518389,1.43797 5.539197,1.82004 1.154739,0.21833 2.156688,0.45446 2.226738,0.52452 0.246099,0.2461 9.304617,0.12436 10.420035,-0.14004 4.504446,-1.06774 6.496799,-1.68568 7.815027,-2.42414 0.833559,-0.46696 1.944967,-1.05922 2.469617,-1.31569 2.813627,-1.37543 7.648251,-7.40793 8.082711,-10.08517 0.479429,-2.95437 -11.631817,-5.46737 -23.230107,-5.6379 z"
         id="path920" /><path
         style="display:inline;fill:#9e9e9e;stroke-width:0.264583"
         d="m -74.638956,60.166775 c -8.46749,-0.744001 -13.69133,-2.63583 -12.783,-4.629396 0.31172,-0.684156 3.27384,-2.339195 4.71321,-2.633434 0.50932,-0.104117 1.93807,-0.527805 3.175,-0.941528 1.23693,-0.413723 3.14193,-0.946468 4.23333,-1.183879 1.09141,-0.23741 2.22251,-0.484551 2.51355,-0.549201 5.98049,-1.328477 16.82764,-1.900293 20.5052,-1.080949 0.36381,0.08105 1.07818,0.217291 1.5875,0.302749 0.50933,0.08546 1.16417,0.196022 1.45521,0.245698 17.33127,2.958153 22.34145,7.916147 9.79971,9.697648 -0.8787,0.124814 -2.01434,0.289321 -2.52367,0.365572 -4.23855,0.634553 -26.87622,0.916323 -32.67604,0.40672 z"
         id="path898" /><path
         style="display:inline;fill:#e69063;stroke-width:0.264583"
         d="m -69.825686,212.53871 c -1.28176,-0.12346 -3.8331,-0.58777 -5.66964,-1.03181 -1.83655,-0.44404 -4.23878,-0.93247 -5.3383,-1.0854 -1.09952,-0.15293 -2.10732,-0.34492 -2.23957,-0.42666 -0.35806,-0.22129 -5.97753,-2.18087 -7.02274,-2.44891 -2.39136,-0.61326 -13.987024,-6.77081 -16.412924,-8.71562 -0.64803,-0.51952 -1.97708,-1.48036 -2.95343,-2.1352 -2.35765,-1.58128 -10.47438,-9.14909 -12.92928,-12.05488 -1.14496,-1.35524 -5.94125,-7.43317 -6.35468,-8.05272 -0.21828,-0.32711 -0.52079,-0.72898 -0.67224,-0.89305 -0.15146,-0.16407 -0.73077,-1.13175 -1.28737,-2.15039 -0.5566,-1.01865 -1.40491,-2.4474 -1.88514,-3.175 -0.48022,-0.72761 -1.30268,-2.21589 -1.82768,-3.3073 -0.52499,-1.0914 -1.19543,-2.43433 -1.48985,-2.98427 -1.10864,-2.0708 -3.38152,-7.81205 -4.21293,-10.64177 -0.25654,-0.87312 -0.77186,-2.60773 -1.14515,-3.85468 -2.05725,-6.87205 -3.34191,-16.73645 -2.41345,-18.53189 1.07949,-2.08751 5.11135,-2.58213 5.73774,-0.70389 0.0617,0.18496 0.10221,-2.66945 0.09,-6.34313 -0.0206,-6.21223 -0.10268,-7.14328 -0.56419,-6.39654 -0.22491,0.3639 -2.67628,0.0497 -3.42026,-0.43836 -1.47666,-0.96876 -1.93536,-5.21596 -0.92646,-8.57838 0.15282,-0.50932 0.44224,-1.69995 0.64316,-2.64583 0.39741,-1.87089 2.37066,-8.537844 2.78001,-9.392714 0.13937,-0.29104 0.74314,-1.71979 1.34172,-3.175 2.42766,-5.901874 8.28757,-16.512994 10.33625,-18.716889 0.57613,-0.619776 1.89956,-2.25796 2.94095,-3.640407 1.0414,-1.382448 3.98194,-4.61844 6.53454,-7.191095 2.57232,-2.592519 4.72215,-4.980611 4.82292,-5.357434 0.26807,-1.002342 1.9346,-3.86653 2.79074,-4.796306 0.40939,-0.444608 1.14965,-1.337577 1.64501,-1.984375 3.89473,-5.085369 17.452464,-12.42261 26.616014,-14.404181 0.87312,-0.188808 3.01625,-0.664238 4.7625,-1.056511 1.74625,-0.392272 4.84187,-0.881099 6.87916,-1.086283 2.0373,-0.205183 4.83526,-0.488752 6.21771,-0.630153 3.2053,-0.327847 6.79989,-0.33037 8.99583,-0.0063 0.94589,0.139584 3.32714,0.379968 5.29167,0.534188 3.29426,0.258605 5.57354,0.640376 10.45104,1.750513 2.094,0.476601 9.07346,2.602301 10.39388,3.165612 0.47788,0.20387 0.97861,0.370674 1.11275,0.370674 0.13413,0 1.70767,0.705878 3.49675,1.568617 3.25852,1.571341 6.09207,3.353101 10.76837,6.771242 1.19558,0.87391 3.82804,3.668188 4.85541,5.153891 0.45284,0.654843 0.90723,1.250156 1.00976,1.322916 0.22595,0.160338 1.82189,3.045947 2.74725,4.967285 0.38743,0.80442 0.92442,1.494022 1.26791,1.628248 0.74186,0.289899 6.27591,5.955136 7.87657,8.063288 0.65226,0.85907 1.81304,2.28782 2.57949,3.175 0.76645,0.88718 2.10552,2.684616 2.9757,3.994296 0.87019,1.30969 1.70212,2.5256 1.84874,2.70204 0.14662,0.17643 0.41489,0.65135 0.59617,1.05537 0.18127,0.40403 0.89505,1.68843 1.58616,2.85422 0.69112,1.16579 1.25667,2.19748 1.25677,2.29264 1.1e-4,0.0952 0.42537,0.92524 0.94503,1.84461 1.12378,1.98816 2.39196,4.880064 2.94411,6.713624 0.21911,0.72761 0.48519,1.44198 0.59128,1.58751 0.24117,0.33078 1.3555,3.43254 1.61591,4.497914 0.10671,0.43656 0.55264,2.10345 0.99094,3.70416 0.43831,1.60073 0.88328,3.56526 0.98881,4.36563 0.10554,0.80037 0.35372,2.07849 0.55152,2.84029 1.67037,6.43321 1.67918,21.30034 0.0175,29.43889 -0.22284,1.0914 -0.48408,2.52015 -0.58052,3.17499 -0.18652,1.26652 -0.86782,4.03743 -1.52876,6.21771 -0.22057,0.72761 -0.66066,2.21589 -0.97796,3.30729 -1.02448,3.52376 -3.45626,9.51996 -4.50673,11.1125 -0.23997,0.36381 -1.18477,2.09021 -2.09956,3.83646 -0.91479,1.74625 -1.8134,3.3536 -1.99692,3.57188 -0.18351,0.21828 -0.65484,1.03763 -1.04739,1.82077 -0.69825,1.393 -0.91258,1.71873 -1.73567,2.63778 -0.22258,0.24853 -0.81671,1.04367 -1.32029,1.76697 -0.50358,0.72331 -1.27397,1.74577 -1.71197,2.27214 -0.43801,0.52637 -1.33216,1.6409 -1.987,2.47673 -2.42518,3.09546 -10.76774,11.17385 -13.8143,13.37687 -0.76958,0.5565 -1.72022,1.26196 -2.11252,1.5677 -0.3923,0.30573 -0.98761,0.70363 -1.32292,0.88421 -0.3353,0.18058 -1.32401,0.79292 -2.19714,1.36076 -0.87312,0.56784 -2.00422,1.29803 -2.51354,1.62265 -1.39698,0.89038 -10.36838,5.17156 -11.50938,5.49232 -0.29104,0.0818 -1.71979,0.57819 -3.175,1.10304 -2.47081,0.89116 -5.85985,1.79525 -9.92187,2.64685 -0.94589,0.19829 -2.51212,0.54517 -3.48052,0.77082 -3.81489,0.88895 -17.26163,1.25962 -23.5885,0.65023 z m 16.78215,-53.41107 c 4.14963,-0.72467 6.12875,-1.34434 8.36053,-2.6177 1.05056,-0.59941 2.02988,-1.08983 2.17626,-1.08983 1.4374,0 6.99205,-7.09171 7.81411,-9.9764 0.34844,-1.22269 -6.74026,-3.69859 -13.48798,-4.711 -6.31487,-0.94746 -12.00356,-1.18351 -16.13959,-0.6697 -2.76804,0.34387 -8.37393,1.31641 -9.12812,1.5836 -0.3638,0.12889 -1.85209,0.55796 -3.30729,0.9535 -6.08469,1.65386 -6.16934,1.76342 -4.32195,5.59386 1.33361,2.76514 7.122,8.28447 8.68834,8.28447 0.15534,0 0.54613,0.17256 0.86844,0.38346 0.3223,0.21091 1.47897,0.68877 2.57038,1.06193 1.82613,0.62435 3.17807,0.91595 6.74687,1.45521 2.50879,0.37909 6.11673,0.28007 9.16,-0.2514 z m -27.21417,-78.506288 c -0.32543,-0.0628 -0.92074,-0.0644 -1.32292,-0.004 -0.40218,0.0608 -0.13593,0.1122 0.59167,0.11419 0.72761,0.002 1.05667,-0.0478 0.73124,-0.11057 z m 32.60625,-6.172888 c 4.22011,-0.156109 8.50636,-0.39162 9.525,-0.523359 5.82756,-0.753663 7.83768,-1.043839 8.02259,-1.158118 0.11373,-0.07029 1.56986,-0.320638 3.23584,-0.556334 1.66599,-0.235696 3.80298,-0.592037 4.74886,-0.791869 0.94589,-0.199832 2.96995,-0.622282 4.49792,-0.938776 5.08971,-1.054259 6.10537,-2.049087 5.70499,-5.588 -0.93508,-8.26501 -11.73571,-16.698976 -26.2102,-20.466949 -1.30968,-0.340936 -3.39943,-0.911913 -4.64388,-1.268839 -1.24445,-0.356925 -3.14945,-0.727679 -4.23334,-0.823897 -1.08388,-0.09622 -3.45897,-0.354109 -5.27799,-0.573091 -7.55972,-0.910081 -21.22755,0.09852 -27.11979,2.001279 -0.87312,0.281955 -2.77812,0.863845 -4.23333,1.293089 -1.45521,0.429245 -3.5388,1.156869 -4.63021,1.616942 -1.0914,0.460074 -2.28203,0.934832 -2.64583,1.055017 -1.13838,0.376074 -2.71696,1.162446 -4.40024,2.191994 -0.89216,0.545674 -1.7256,0.994418 -1.85208,0.99721 -0.12648,0.0028 -0.70492,0.41951 -1.28541,0.926041 -0.5805,0.506532 -1.12753,0.920966 -1.21562,0.920966 -0.0881,0 -0.506124,0.305832 -0.928944,0.679627 -0.42281,0.373794 -1.27314,1.10118 -1.88962,1.616414 -6.51703,5.446731 -7.18078,13.876882 -1.19424,15.167856 1.34607,0.290271 3.4892,0.753141 4.762504,1.028596 1.27331,0.275455 3.4462,0.640004 4.82865,0.810112 1.38245,0.170106 3.28745,0.48079 4.23333,0.690407 3.7936,0.8407 9.67247,1.432319 16.93334,1.704085 12.6477,0.473388 12.18413,0.473581 25.2677,-0.0104 z"
         id="path310" /><path
         style="display:inline;fill:#d87c52;stroke-width:0.264583"
         d="m -69.825686,212.53871 c -1.28176,-0.12346 -3.8331,-0.58777 -5.66964,-1.03181 -1.83655,-0.44404 -4.23878,-0.93247 -5.3383,-1.0854 -1.09952,-0.15293 -2.10732,-0.34492 -2.23957,-0.42666 -0.35806,-0.22129 -5.97753,-2.18087 -7.02274,-2.44891 -2.39136,-0.61326 -13.987024,-6.77081 -16.412924,-8.71562 -0.64803,-0.51952 -1.97708,-1.48036 -2.95343,-2.1352 -2.35765,-1.58128 -10.47438,-9.14909 -12.92928,-12.05488 -1.14496,-1.35524 -5.94125,-7.43317 -6.35468,-8.05272 -0.21828,-0.32711 -0.52079,-0.72898 -0.67224,-0.89305 -0.15146,-0.16407 -0.73077,-1.13175 -1.28737,-2.15039 -0.5566,-1.01865 -1.40491,-2.4474 -1.88514,-3.175 -0.48022,-0.72761 -1.30268,-2.21589 -1.82768,-3.3073 -0.52499,-1.0914 -1.19543,-2.43433 -1.48985,-2.98427 -1.10864,-2.0708 -3.38152,-7.81205 -4.21293,-10.64177 -0.25654,-0.87312 -0.77186,-2.60773 -1.14515,-3.85468 -2.05725,-6.87205 -3.34191,-16.73645 -2.41345,-18.53189 1.08238,-2.09309 5.03799,-2.57697 5.75417,-0.70389 0.0707,0.18496 0.11125,-2.66996 0.0901,-6.34428 -0.0359,-6.21543 -0.11987,-7.1409 -0.58062,-6.39539 -0.22491,0.3639 -2.67628,0.0497 -3.42026,-0.43836 -1.47666,-0.96876 -1.93536,-5.21596 -0.92646,-8.57838 0.15282,-0.50932 0.44224,-1.69995 0.64316,-2.64583 0.39741,-1.87089 2.37066,-8.537844 2.78001,-9.392714 0.13937,-0.29104 0.74314,-1.71979 1.34172,-3.175 2.42766,-5.901874 8.28757,-16.512994 10.33625,-18.716889 0.57613,-0.619776 1.89956,-2.25796 2.94095,-3.640407 1.0414,-1.382448 3.98194,-4.61844 6.53454,-7.191095 2.57232,-2.592519 4.72215,-4.980611 4.82292,-5.357434 0.26807,-1.002342 1.9346,-3.86653 2.79074,-4.796306 0.40939,-0.444608 1.14965,-1.337577 1.64501,-1.984375 3.89473,-5.085369 17.452464,-12.42261 26.616014,-14.404181 0.87312,-0.188808 3.01625,-0.664238 4.7625,-1.056511 1.74625,-0.392272 4.84187,-0.881099 6.87916,-1.086283 2.0373,-0.205183 4.83526,-0.488752 6.21771,-0.630153 3.2053,-0.327847 6.79989,-0.33037 8.99583,-0.0063 0.94589,0.139584 3.32714,0.379968 5.29167,0.534188 3.29426,0.258605 5.57354,0.640376 10.45104,1.750513 2.094,0.476601 9.07346,2.602301 10.39388,3.165612 0.47788,0.20387 0.97861,0.370674 1.11275,0.370674 0.13413,0 1.70767,0.705878 3.49675,1.568617 3.25852,1.571341 6.09207,3.353101 10.76837,6.771242 1.19558,0.87391 3.82804,3.668188 4.85541,5.153891 0.45284,0.654843 0.90723,1.250156 1.00976,1.322916 0.22595,0.160338 1.82189,3.045947 2.74725,4.967285 0.38743,0.80442 0.92442,1.494022 1.26791,1.628248 0.74186,0.289899 6.27591,5.955136 7.87657,8.063288 0.65226,0.85907 1.81304,2.28782 2.57949,3.175 0.76645,0.88718 2.10552,2.684616 2.9757,3.994296 0.87019,1.30969 1.70212,2.5256 1.84874,2.70204 0.14662,0.17643 0.41489,0.65135 0.59617,1.05537 0.18127,0.40403 0.89505,1.68843 1.58616,2.85422 0.69112,1.16579 1.25667,2.19748 1.25677,2.29264 1.1e-4,0.0952 0.42537,0.92524 0.94503,1.84461 1.12378,1.98816 2.39196,4.880064 2.94411,6.713624 0.21911,0.72761 0.48519,1.44198 0.59128,1.58751 0.24117,0.33078 1.3555,3.43254 1.61591,4.497914 0.10671,0.43656 0.55264,2.10345 0.99094,3.70416 0.43831,1.60073 0.88328,3.56526 0.98881,4.36563 0.10554,0.80037 0.35372,2.07849 0.55152,2.84029 1.67037,6.43321 1.67918,21.30034 0.0175,29.43889 -0.22284,1.0914 -0.48408,2.52015 -0.58052,3.17499 -0.18652,1.26652 -0.86782,4.03743 -1.52876,6.21771 -0.22057,0.72761 -0.66066,2.21589 -0.97796,3.30729 -1.02448,3.52376 -3.45626,9.51996 -4.50673,11.1125 -0.23997,0.36381 -1.18477,2.09021 -2.09956,3.83646 -0.91479,1.74625 -1.8134,3.3536 -1.99692,3.57188 -0.18351,0.21828 -0.65484,1.03763 -1.04739,1.82077 -0.69825,1.393 -0.91258,1.71873 -1.73567,2.63778 -0.22258,0.24853 -0.81671,1.04367 -1.32029,1.76697 -0.50358,0.72331 -1.27397,1.74577 -1.71197,2.27214 -0.43801,0.52637 -1.33216,1.6409 -1.987,2.47673 -2.42518,3.09546 -10.76774,11.17385 -13.8143,13.37687 -0.76958,0.5565 -1.72022,1.26196 -2.11252,1.5677 -0.3923,0.30573 -0.98761,0.70363 -1.32292,0.88421 -0.3353,0.18058 -1.32401,0.79292 -2.19714,1.36076 -0.87312,0.56784 -2.00422,1.29803 -2.51354,1.62265 -1.39698,0.89038 -10.36838,5.17156 -11.50938,5.49232 -0.29104,0.0818 -1.71979,0.57819 -3.175,1.10304 -2.47081,0.89116 -5.85985,1.79525 -9.92187,2.64685 -0.94589,0.19829 -2.51212,0.54517 -3.48052,0.77082 -3.81489,0.88895 -17.26163,1.25962 -23.5885,0.65023 z m 18.20548,-20.74406 c 11.28032,-1.47857 16.80477,-2.90776 23.60654,-6.10707 1.05088,-0.4943 1.99623,-0.89872 2.10076,-0.89872 0.20258,0 2.43871,-1.29515 6.29417,-3.64551 11.96653,-7.29503 24.11714,-24.50467 27.12818,-38.42324 0.26758,-1.23693 0.67113,-2.96333 0.89678,-3.83646 2.53504,-9.80936 1.64087,-27.72714 -1.97121,-39.499454 -0.43358,-1.41311 -0.96843,-3.22414 -1.18855,-4.02451 -1.47143,-5.35013 -2.48999,-7.961294 -5.42291,-13.902114 -1.00891,-2.04361 -1.83438,-3.79839 -1.83438,-3.89952 0,-0.21453 -2.79647,-4.797339 -3.47602,-5.696453 -0.46227,-0.61163 -0.46227,-0.61163 -0.9025,0.239693 -0.52032,1.00619 -1.08083,1.636292 -2.17102,2.440618 -0.90501,0.667692 0.79025,4.646062 4.1181,9.664242 2.02555,3.05439 3.50799,6.159684 3.20178,6.706854 -0.12842,0.22946 -0.25038,1.19632 -0.27103,2.14856 -0.0355,1.63676 -0.0654,1.71431 -0.54722,1.41942 -0.43858,-0.26841 -0.60918,-0.19207 -1.22307,0.54733 -1.60942,1.93846 -5.03674,1.59561 -5.45629,-0.54582 -0.0908,-0.46343 -0.63293,-1.49744 -1.20476,-2.29781 -3.28142,-4.592864 -5.73717,-9.922094 -6.24694,-13.556494 -0.1963,-1.39953 -0.12556,-1.38398 -2.75437,-0.60539 -0.65484,0.19395 -1.84546,0.43274 -2.64583,0.53064 -0.80036,0.0979 -1.87193,0.28873 -2.38125,0.42405 -0.50932,0.13532 -2.05713,0.37358 -3.43958,0.52946 -1.38245,0.15589 -3.25065,0.45374 -4.15155,0.6619 -0.90091,0.20816 -3.28216,0.49202 -5.29167,0.6308 -2.00951,0.13878 -4.36803,0.39957 -5.24116,0.57953 -3.97761,0.81983 -37.10939,0.35705 -37.68238,-0.52634 -0.0842,-0.12976 -1.52225,-0.23463 -3.19574,-0.23303 -1.67703,0.002 -4.05212,-0.18606 -5.29167,-0.41812 -1.23693,-0.23157 -2.96333,-0.49641 -3.83646,-0.58853 -1.73668,-0.18324 -6.11248,-0.98652 -8.938874,-1.64093 -2.19181,-0.50749 -3.09193,0.38486 -3.09819,3.07143 -0.003,1.13605 -1.09512,4.37838 -1.70344,5.05561 -0.89535,0.99677 -1.73762,2.28897 -1.73762,2.66584 0,0.18436 -0.16091,0.52317 -0.35757,0.75291 -0.19666,0.22974 -0.64176,0.953494 -0.9891,1.608334 -2.52665,4.76344 -4.56539,6.0352 -7.2305,4.51038 -3.19047,-1.8254 -3.15687,-5.56799 0.0935,-10.412834 0.40921,-0.60995 1.15775,-1.76385 1.66342,-2.56422 4.20229,-6.65127 4.43384,-6.94591 5.32411,-6.77471 0.62101,0.11942 0.42829,-0.0461 -0.75281,-0.64655 -0.87313,-0.443888 -2.01132,-1.219914 -2.52932,-1.724503 -1.2095,-1.178174 -1.27046,-1.12199 -3.89486,3.589513 -0.36476,0.65485 -1.04701,1.78594 -1.51611,2.51355 -1.27123,1.97178 -4.47421,8.4297 -5.77399,11.641664 -1.33414,3.29686 -4.23695,12.589384 -4.54579,14.552084 -0.0916,0.58209 -0.33007,1.95131 -0.52994,3.04271 -3.38185,17.5636 3.45858,40.26996 6.46468,46.68838 4.97889,9.61601 12.44186,18.63313 19.44375,23.49288 5.656764,3.92614 9.132954,5.93647 12.460744,7.20623 1.01865,0.38868 2.182,0.88401 2.58523,1.10074 1.46889,0.78951 8.39318,2.63325 12.76061,3.39779 3.70596,0.64874 4.07916,0.70892 6.61458,1.06649 3.12635,0.44092 13.27114,0.43403 16.66875,-0.0113 z m -47.625,-68.83029 c -3.931684,-1.02825 -2.821774,-7.05586 2.25303,-12.23554 8.74483,-8.92556 24.66704,-4.82767 28.24457,7.26929 1.49005,5.03843 -4.81394,6.9619 -7.20632,2.19878 -4.3997,-8.75962 -13.14673,-8.94206 -18.31942,-0.38208 -1.69464,2.80437 -3.03796,3.65532 -4.97186,3.14955 z m 57.61151,-0.13746 c -1.87303,-0.50236 -2.82685,-3.81586 -1.70614,-5.92701 0.14768,-0.2782 0.6612,-1.3092 1.14114,-2.29111 4.51865,-9.24461 19.08225,-11.6019 26.23128,-4.24585 3.52056,3.6225 4.60277,5.47912 4.87156,8.3576 0.43372,4.64465 -4.37962,6.15799 -6.69146,2.10383 -5.38102,-9.43637 -13.47464,-9.99891 -18.38414,-1.27778 -1.80949,3.21434 -3.01312,3.93718 -5.46224,3.28032 z m -6.01776,-48.378436 c 4.22011,-0.156109 8.50636,-0.39162 9.525,-0.523359 5.82756,-0.753663 7.83768,-1.043839 8.02259,-1.158118 0.11373,-0.07029 1.56986,-0.320638 3.23584,-0.556334 1.66599,-0.235696 3.80298,-0.592037 4.74886,-0.791869 0.94589,-0.199832 2.96995,-0.622282 4.49792,-0.938776 5.08971,-1.054259 6.10537,-2.049087 5.70499,-5.588 -0.93508,-8.26501 -11.73571,-16.698976 -26.2102,-20.466949 -1.30968,-0.340936 -3.39943,-0.911913 -4.64388,-1.268839 -1.24445,-0.356925 -3.14945,-0.727679 -4.23334,-0.823897 -1.08388,-0.09622 -3.45897,-0.354109 -5.27799,-0.573091 -7.55972,-0.910081 -21.22755,0.09852 -27.11979,2.001279 -0.87312,0.281955 -2.77812,0.863845 -4.23333,1.293089 -1.45521,0.429245 -3.5388,1.156869 -4.63021,1.616942 -1.0914,0.460074 -2.28203,0.934832 -2.64583,1.055017 -1.13838,0.376074 -2.71696,1.162446 -4.40024,2.191994 -0.89216,0.545674 -1.7256,0.994418 -1.85208,0.99721 -0.12648,0.0028 -0.70492,0.41951 -1.28541,0.926041 -0.5805,0.506532 -1.12753,0.920966 -1.21562,0.920966 -0.0881,0 -0.506124,0.305832 -0.928944,0.679627 -0.42281,0.373794 -1.27314,1.10118 -1.88962,1.616414 -6.51703,5.446731 -7.18078,13.876882 -1.19424,15.167856 1.34607,0.290271 3.4892,0.753141 4.762504,1.028596 1.27331,0.275455 3.4462,0.640004 4.82865,0.810112 1.38245,0.170106 3.28745,0.48079 4.23333,0.690407 3.7936,0.8407 9.67247,1.432319 16.93334,1.704085 12.6477,0.473388 12.18413,0.473581 25.2677,-0.0104 z"
         id="path308"
         sodipodi:nodetypes="sssssssssssssssssscscssssssssssssssssssssscsssssssssssscsssssssssssssssssssssssssssssssscscssssssssssssssssssssccssscsssssscsssssssccssssssssssssssscsscssssssssssssssssssssssssssssss" /><path
         style="display:inline;fill:#262726;stroke-width:0.264583"
         d="m -69.825686,212.53871 c -1.28176,-0.12346 -3.8331,-0.58777 -5.66964,-1.03181 -1.83655,-0.44404 -4.23878,-0.93247 -5.3383,-1.0854 -1.09952,-0.15293 -2.10732,-0.34492 -2.23957,-0.42666 -0.35806,-0.22129 -5.97753,-2.18087 -7.02274,-2.44891 -2.39136,-0.61326 -13.987024,-6.77081 -16.412924,-8.71562 -0.64803,-0.51952 -1.97708,-1.48036 -2.95343,-2.1352 -2.35765,-1.58128 -10.47438,-9.14909 -12.92928,-12.05488 -1.14496,-1.35524 -5.94125,-7.43317 -6.35468,-8.05272 -0.21828,-0.32711 -0.52079,-0.72898 -0.67224,-0.89305 -0.15146,-0.16407 -0.73077,-1.13175 -1.28737,-2.15039 -0.5566,-1.01865 -1.40491,-2.4474 -1.88514,-3.175 -0.48022,-0.72761 -1.30268,-2.21589 -1.82768,-3.3073 -0.52499,-1.0914 -1.19543,-2.43433 -1.48985,-2.98427 -1.10864,-2.0708 -3.38152,-7.81205 -4.21293,-10.64177 -0.25654,-0.87312 -0.77186,-2.60773 -1.14515,-3.85468 -3.72213,-12.43344 -3.55595,-20.31827 0.42881,-20.34589 2.79096,-0.0193 3.27223,0.75503 3.77657,6.07662 0.19997,2.11005 0.43741,4.13411 0.52765,4.49791 0.0902,0.3638 0.21074,0.89959 0.26779,1.19063 0.45421,2.31705 0.78268,3.76427 1.32115,5.82083 1.47376,5.62874 4.9019,14.32809 6.90596,17.52477 0.47762,0.76186 1.23499,2.07155 1.68303,2.91042 1.08043,2.02288 2.45693,4.19012 3.43178,5.40319 0.43571,0.54219 0.79221,1.04634 0.79221,1.12034 0,0.074 0.37781,0.70606 0.83958,1.40458 0.78215,1.18314 1.45155,1.97471 5.0559,5.97863 1.73028,1.92209 7.65186,7.41898 9.32138,8.65286 0.68915,0.50932 1.98236,1.4977 2.8738,2.19638 3.41446,2.67617 10.931194,6.84894 15.121954,8.39465 0.86905,0.32054 2.354,0.88111 3.29989,1.24571 1.6735,0.64507 8.59294,2.52896 10.36311,2.82147 0.48492,0.0801 1.29839,0.26914 1.80772,0.42003 1.809,0.53592 14.53744,1.41058 15.99708,1.09928 0.73322,-0.15637 2.76188,-0.35323 4.50813,-0.43746 4.98152,-0.24029 12.47122,-1.78022 17.39087,-3.57566 1.18651,-0.43303 2.31742,-0.78732 2.51313,-0.78732 0.19572,0 1.57192,-0.58374 3.05822,-1.2972 1.48629,-0.71346 3.84415,-1.82797 5.23966,-2.47668 1.39552,-0.64872 3.38348,-1.73185 4.41769,-2.40697 1.03422,-0.67511 1.94601,-1.22748 2.02622,-1.22748 0.0802,0 0.83069,-0.53783 1.66773,-1.19519 0.83704,-0.65735 2.71252,-2.10051 4.16773,-3.20702 2.28875,-1.74032 6.41052,-5.49969 7.76796,-7.08498 0.23877,-0.27884 0.86386,-0.93369 1.38909,-1.45521 0.52524,-0.52152 1.71586,-1.95315 2.64584,-3.1814 0.92997,-1.22824 1.91111,-2.47839 2.18031,-2.77812 0.81456,-0.90693 4.78246,-7.2967 7.62007,-12.27109 0.27554,-0.48302 1.15916,-2.50708 1.96361,-4.49792 0.80444,-1.99083 1.56687,-3.85782 1.69428,-4.14886 0.24774,-0.56588 1.43153,-4.50429 1.74961,-5.82083 0.30153,-1.24807 0.30561,-1.26164 0.73586,-2.4474 0.22441,-0.61846 0.35905,-1.12448 0.2992,-1.12448 -0.0598,0 0.0689,-0.50368 0.28609,-1.11929 0.2172,-0.61561 0.55886,-2.37178 0.75925,-3.90261 0.20038,-1.53082 0.51406,-3.9144 0.69706,-5.29685 0.89867,-6.78908 0.0668,-20.13495 -1.62442,-26.06146 -0.29069,-1.01864 -0.77731,-2.80458 -1.08137,-3.96875 -0.30406,-1.16416 -0.67275,-2.26549 -0.81931,-2.44739 -0.14656,-0.1819 -0.19076,-0.33073 -0.0982,-0.33073 0.0925,0 -0.0215,-0.44648 -0.25333,-0.99219 -0.23186,-0.545704 -0.87349,-2.242344 -1.42584,-3.770314 -1.26736,-3.5059 -3.26151,-7.647644 -5.15931,-10.715624 -0.81015,-1.30969 -1.56096,-2.52419 -1.66846,-2.69888 -0.945,-1.53564 -4.39687,-6.42925 -4.53508,-6.42925 -0.0971,0 -0.374,-0.32742 -0.61539,-0.7276 -0.24139,-0.40019 -0.77307,-1.079281 -1.18153,-1.509105 -0.40845,-0.429823 -1.07971,-1.203729 -1.4917,-1.719791 -1.59908,-2.003013 -2.92701,-3.272113 -3.03143,-2.897119 -1.02962,3.697774 -5.64437,6.543485 -12.22679,7.539715 -0.65485,0.0991 -1.38777,0.28112 -1.62873,0.40448 -0.76084,0.38951 -9.83298,1.78497 -16.09836,2.47622 -2.11005,0.2328 -5.32473,0.59645 -7.14375,0.80811 -7.17608,0.83501 -31.46202,0.70736 -35.45416,-0.18635 -0.65485,-0.1466 -2.61938,-0.35631 -4.36563,-0.46603 -4.5227,-0.28417 -13.07214,-1.57585 -18.520834,-2.7982 -1.01865,-0.22852 -2.1475,-0.47777 -2.50857,-0.55389 -1.00988,-0.21289 -4.01255,-1.1654 -4.89976,-1.5543 -1.92394,-0.843337 -2.38126,-1.114842 -3.42431,-2.03297 -0.97727,-0.860224 -1.59967,-1.888656 -2.10965,-3.485901 -0.45239,-1.416857 -8.1107,7.970691 -11.73817,14.388621 -0.4564,0.8075 -1.08495,1.76 -1.39676,2.11667 -0.65333,0.74731 -1.98738,3.318964 -3.01286,5.807864 -0.38972,0.94588 -0.87974,2.09497 -1.08894,2.55352 -0.20919,0.45856 -0.38036,0.90675 -0.38036,0.99599 0,0.0892 -0.6558,1.82816 -1.45735,3.86426 -0.91696,2.329294 -1.74781,5.050404 -2.24068,7.338394 -0.43083,2.00001 -0.96344,4.23169 -1.18359,4.95929 -0.22015,0.72761 -0.47249,2.02294 -0.56076,2.87852 -0.27011,2.61797 -2.47869,3.60999 -4.73767,2.12799 -1.47666,-0.96876 -1.93536,-5.21596 -0.92646,-8.57838 0.15282,-0.50932 0.44224,-1.69995 0.64316,-2.64583 0.39741,-1.87089 2.37066,-8.537844 2.78001,-9.392714 0.13937,-0.29104 0.74314,-1.71979 1.34172,-3.175 2.42766,-5.901874 8.28756,-16.512994 10.33625,-18.716889 0.57613,-0.619776 1.89956,-2.25796 2.94095,-3.640407 1.0414,-1.382448 3.98194,-4.61844 6.53454,-7.191095 2.57232,-2.592519 4.72215,-4.980611 4.82292,-5.357434 0.26807,-1.002342 1.9346,-3.86653 2.79074,-4.796306 0.40939,-0.444608 1.14965,-1.337577 1.64501,-1.984375 3.89473,-5.085369 17.452464,-12.42261 26.616014,-14.404181 0.87312,-0.188808 3.01625,-0.664238 4.7625,-1.056511 1.74625,-0.392272 4.84187,-0.881099 6.87916,-1.086283 2.03729,-0.205183 4.83526,-0.488752 6.21771,-0.630153 3.2053,-0.327847 6.79989,-0.33037 8.99583,-0.0063 0.94589,0.139584 3.32714,0.379968 5.29167,0.534188 3.29426,0.258605 5.57354,0.640376 10.45104,1.750513 2.094,0.476601 9.07346,2.602301 10.39388,3.165612 0.47788,0.20387 0.97861,0.370674 1.11275,0.370674 0.13413,0 1.70767,0.705878 3.49675,1.568617 3.25852,1.571341 6.09207,3.353101 10.76837,6.771242 1.19558,0.87391 3.82804,3.668188 4.85541,5.153891 0.45284,0.654843 0.90723,1.250156 1.00976,1.322916 0.22595,0.160338 1.82189,3.045947 2.74725,4.967285 0.38743,0.80442 0.92442,1.494022 1.26791,1.628248 0.74186,0.289899 6.27591,5.955136 7.87657,8.063288 0.65226,0.85907 1.81304,2.28782 2.57949,3.175 0.76645,0.88718 2.10552,2.684616 2.9757,3.994306 0.87019,1.30969 1.70212,2.5256 1.84874,2.70204 0.14662,0.17643 0.41489,0.65135 0.59617,1.05537 0.18127,0.40403 0.89505,1.68843 1.58616,2.85422 0.69112,1.16579 1.25667,2.19748 1.25677,2.29264 1.1e-4,0.0952 0.42537,0.92524 0.94503,1.84461 1.12378,1.98816 2.39196,4.880064 2.94411,6.713624 0.21911,0.72761 0.48519,1.44198 0.59128,1.5875 0.24117,0.33078 1.3555,3.43254 1.61591,4.497924 0.10671,0.43656 0.55264,2.10344 0.99094,3.70416 0.43831,1.60073 0.88328,3.56526 0.98881,4.36563 0.10554,0.80036 0.35372,2.07849 0.55152,2.84028 1.67037,6.43321 1.67918,21.30034 0.0175,29.43889 -0.22284,1.0914 -0.48408,2.52015 -0.58052,3.17499 -0.18652,1.26652 -0.86782,4.03743 -1.52876,6.21771 -0.22057,0.72761 -0.66066,2.21589 -0.97796,3.30729 -1.02448,3.52376 -3.45626,9.51996 -4.50673,11.1125 -0.23997,0.36381 -1.18477,2.09021 -2.09956,3.83646 -0.91479,1.74625 -1.8134,3.3536 -1.99692,3.57188 -0.18351,0.21828 -0.65484,1.03763 -1.04739,1.82077 -0.69825,1.393 -0.91258,1.71873 -1.73567,2.63778 -0.22258,0.24853 -0.81671,1.04367 -1.32029,1.76697 -0.50358,0.72331 -1.27397,1.74577 -1.71197,2.27214 -0.43801,0.52637 -1.33216,1.6409 -1.987,2.47673 -2.42518,3.09546 -10.76774,11.17385 -13.8143,13.37687 -0.76958,0.5565 -1.72022,1.26196 -2.11252,1.5677 -0.3923,0.30573 -0.98761,0.70363 -1.32292,0.88421 -0.3353,0.18058 -1.32401,0.79292 -2.19714,1.36076 -0.87312,0.56784 -2.00422,1.29803 -2.51354,1.62265 -1.39698,0.89038 -10.36838,5.17156 -11.50938,5.49232 -0.29104,0.0818 -1.71979,0.57819 -3.175,1.10304 -2.47081,0.89116 -5.85985,1.79525 -9.92187,2.64685 -0.94589,0.19829 -2.51212,0.54517 -3.48052,0.77082 -3.81489,0.88895 -17.26163,1.25962 -23.5885,0.65023 z m 22.17423,-138.090246 c 4.22011,-0.156109 8.50636,-0.39162 9.525,-0.523359 5.82756,-0.753663 7.83768,-1.043839 8.02259,-1.158118 0.11373,-0.07029 1.56986,-0.320638 3.23584,-0.556334 1.66599,-0.235696 3.80298,-0.592037 4.74886,-0.791869 0.94589,-0.199832 2.96995,-0.622282 4.49792,-0.938776 5.08971,-1.054259 6.10537,-2.049087 5.70499,-5.588 -0.93508,-8.26501 -11.73571,-16.698976 -26.2102,-20.466949 -1.30968,-0.340936 -3.39943,-0.911913 -4.64388,-1.268839 -1.24445,-0.356925 -3.14945,-0.727679 -4.23334,-0.823897 -1.08388,-0.09622 -3.45897,-0.354109 -5.27799,-0.573091 -7.55972,-0.910081 -21.22755,0.09852 -27.11979,2.001279 -0.87312,0.281955 -2.77812,0.863845 -4.23333,1.293089 -1.45521,0.429245 -3.5388,1.156869 -4.63021,1.616942 -1.0914,0.460074 -2.28203,0.934832 -2.64583,1.055017 -1.13838,0.376074 -2.71696,1.162446 -4.40024,2.191994 -0.89216,0.545674 -1.7256,0.994418 -1.85208,0.99721 -0.12648,0.0028 -0.70492,0.41951 -1.28541,0.926041 -0.5805,0.506532 -1.12753,0.920966 -1.21562,0.920966 -0.0881,0 -0.506124,0.305832 -0.928944,0.679627 -0.42281,0.373794 -1.27314,1.10118 -1.88962,1.616414 -6.51703,5.446731 -7.18078,13.876882 -1.19424,15.167856 1.34607,0.290271 3.4892,0.753141 4.762504,1.028596 1.27331,0.275455 3.4462,0.640004 4.82865,0.810112 1.38245,0.170106 3.28745,0.48079 4.23333,0.690407 3.7936,0.8407 9.67247,1.432319 16.93334,1.704085 12.6477,0.473388 12.18413,0.473581 25.2677,-0.0104 z m -16.00729,88.460476 c -15.29862,-1.64211 -23.73373,-12.15318 -22.78366,-28.39091 0.41115,-7.02703 -2.59806,-6.34782 28.12903,-6.34901 31.15243,-10e-4 28.0102,-0.99879 28.07434,8.91283 0.1158,17.89468 -12.98658,28.02033 -33.41971,25.82709 z m 10.64568,-3.52295 c 4.50445,-1.06774 6.49657,-1.68571 7.8148,-2.42418 0.83356,-0.46696 1.94482,-1.05886 2.46947,-1.31533 2.81363,-1.37543 7.64849,-7.40796 8.08295,-10.0852 0.63924,-3.93916 -21.1054,-7.0935 -34.17227,-4.95714 -5.30122,0.86672 -12.30206,2.83497 -13.2088,3.71358 -2.15566,2.08879 4.72725,10.2662 10.82755,12.86396 2.89882,1.23444 3.51832,1.438 5.53913,1.82007 1.15474,0.21833 2.15685,0.45427 2.2269,0.52433 0.2461,0.2461 9.30485,0.12431 10.42027,-0.14009 z m -46.5183,-36.75183 c -2.573634,-1.10723 -2.224194,-6.97981 0.55243,-9.2842 0.24192,-0.20077 0.78283,-0.86356 1.20204,-1.47285 7.07939,-10.28954 27.10655,-5.54555 28.96713,6.86167 0.6778,4.51994 -5.10529,5.62592 -7.0016,1.33899 -3.5368,-7.99552 -14.03466,-8.96692 -17.88055,-1.65454 -0.21665,0.41193 -0.56973,1.0831 -0.78461,1.49148 -1.25203,2.3795 -3.29291,3.47747 -5.05484,2.71945 z m 57.83304,-0.0399 c -3.77501,-1.57991 -1.41977,-8.93871 4.20892,-13.15053 8.40164,-6.28677 20.96084,-3.17576 25.38825,6.28887 2.8156,6.019 -2.55765,10.30744 -5.77403,4.60831 -5.03792,-8.92669 -13.94418,-9.5603 -18.25177,-1.29846 -1.76425,3.38379 -3.43217,4.44711 -5.57137,3.55181 z"
         id="path306" /><path
         style="display:inline;fill:#262726;stroke-width:0.264583"
         d="m -71.092054,122.09222 c 3.775004,-1.5799 1.419774,-8.9387 -4.20892,-13.15052 -8.40164,-6.28677 -20.96084,-3.17576 -25.388246,6.28887 -2.8156,6.019 2.557646,10.30743 5.774026,4.60831 5.03792,-8.92669 13.94418,-9.5603 18.25177,-1.29846 1.76425,3.38378 3.43217,4.4471 5.57137,3.5518 z"
         id="path474" /></g></g></svg>
